# This file uses centimeters as units for non-parametric coordinates.

mtllib KeyCard2.0.mtl
g default
v -0.165029 -0.013921 0.289826
v 0.165029 -0.013921 0.289826
v -0.165029 0.013921 0.289826
v 0.165029 0.013921 0.289826
v -0.090878 0.013921 -0.288949
v 0.165029 0.013921 -0.289826
v -0.090878 -0.013921 -0.288949
v 0.165029 -0.013921 -0.289826
v 0.031054 -0.013921 0.289826
v 0.077089 -0.013921 -0.289826
v 0.077089 0.013921 -0.289826
v 0.031054 0.013921 0.289826
v 0.034849 -0.013921 0.289826
v 0.080885 -0.013921 -0.289826
v 0.080885 0.013921 -0.289826
v 0.034849 0.013921 0.289826
v 0.049698 -0.013921 0.289826
v 0.095733 -0.013921 -0.289826
v 0.095733 0.013921 -0.289826
v 0.049698 0.013921 0.289826
v 0.053493 -0.013921 0.289826
v 0.099529 -0.013921 -0.289826
v 0.099529 0.013921 -0.289826
v 0.053493 0.013921 0.289826
v -0.165029 0.007945 0.289826
v 0.031054 0.007945 0.289826
v 0.034849 0.007945 0.289826
v 0.049698 0.007945 0.289826
v 0.053493 0.007945 0.289826
v 0.165029 0.007945 0.289826
v 0.165029 0.007945 -0.289826
v 0.099529 0.007945 -0.289826
v 0.095733 0.007945 -0.289826
v 0.080885 0.007945 -0.289826
v 0.077089 0.007945 -0.289826
v -0.090878 0.007945 -0.288949
v -0.165029 0.013921 -0.108319
v 0.031054 0.013921 -0.108319
v 0.034849 0.013921 -0.108319
v 0.049698 0.013921 -0.108319
v 0.053493 0.013921 -0.108319
v 0.165029 0.013921 -0.108319
v 0.165029 0.007945 -0.108319
v 0.165029 -0.013921 -0.108319
v 0.053493 -0.013921 -0.108319
v 0.049698 -0.013921 -0.108319
v 0.034849 -0.013921 -0.108319
v 0.031054 -0.013921 -0.108319
v -0.165029 -0.013921 -0.108319
v -0.165029 0.007945 -0.108319
v -0.165029 -0.013921 -0.199072
v 0.075553 -0.013921 -0.199072
v 0.079349 -0.013921 -0.199072
v 0.094197 -0.013921 -0.199072
v 0.097993 -0.013921 -0.199072
v 0.165029 -0.013921 -0.199072
v 0.165029 0.007945 -0.199072
v 0.165029 0.013921 -0.199072
v 0.097993 0.013921 -0.199072
v 0.094197 0.013921 -0.199072
v 0.079349 0.013921 -0.199072
v 0.075553 0.013921 -0.199072
v -0.165029 0.013921 -0.199072
v -0.165029 0.007945 -0.199072
v 0.094197 0.008599 -0.199072
v 0.049698 0.008599 -0.108319
v 0.079349 0.007206 -0.199072
v 0.034849 0.007206 -0.108319
vt 0.375000 0.000000
vt 0.625000 0.000000
vt 0.375000 0.250000
vt 0.625000 0.250000
vt 0.375000 0.500000
vt 0.625000 0.500000
vt 0.375000 0.750000
vt 0.625000 0.750000
vt 0.375000 1.000000
vt 0.625000 1.000000
vt 0.875000 0.000000
vt 0.875000 0.250000
vt 0.125000 0.000000
vt 0.125000 0.250000
vt 0.425000 0.000000
vt 0.425000 1.000000
vt 0.425000 0.750000
vt 0.425000 0.500000
vt 0.425000 0.250000
vt 0.475000 0.000000
vt 0.475000 1.000000
vt 0.475000 0.750000
vt 0.475000 0.500000
vt 0.475000 0.250000
vt 0.525000 0.000000
vt 0.525000 1.000000
vt 0.525000 0.750000
vt 0.525000 0.500000
vt 0.525000 0.250000
vt 0.575000 0.000000
vt 0.575000 1.000000
vt 0.575000 0.750000
vt 0.575000 0.500000
vt 0.575000 0.250000
vt 0.375000 0.125000
vt 0.425000 0.125000
vt 0.475000 0.125000
vt 0.525000 0.125000
vt 0.575000 0.125000
vt 0.625000 0.125000
vt 0.625000 0.625000
vt 0.875000 0.125000
vt 0.575000 0.625000
vt 0.525000 0.625000
vt 0.475000 0.625000
vt 0.425000 0.625000
vt 0.125000 0.125000
vt 0.375000 0.625000
vt 0.250000 0.250000
vt 0.375000 0.375000
vt 0.425000 0.375000
vt 0.737500 0.187500
vt 0.262500 0.187500
vt 0.575000 0.375000
vt 0.625000 0.375000
vt 0.750000 0.250000
vt 0.750000 0.125000
vt 0.625000 0.875000
vt 0.750000 0.000000
vt 0.575000 0.875000
vt 0.525000 0.875000
vt 0.475000 0.875000
vt 0.425000 0.875000
vt 0.250000 0.000000
vt 0.375000 0.875000
vt 0.250000 0.125000
vt 0.187500 0.000000
vt 0.375000 0.812500
vt 0.425000 0.812500
vt 0.475000 0.812500
vt 0.525000 0.812500
vt 0.575000 0.812500
vt 0.625000 0.812500
vt 0.812500 0.000000
vt 0.812500 0.125000
vt 0.625000 0.437500
vt 0.812500 0.250000
vt 0.575000 0.437500
vt 0.762500 0.218750
vt 0.237500 0.218750
vt 0.425000 0.437500
vt 0.187500 0.250000
vt 0.375000 0.437500
vt 0.187500 0.125000
vt 1.000000 1.000000
vt 0.000000 1.000000
vt 1.000000 1.000000
vt 0.000000 1.000000
vn 0.000000 0.000000 1.000000
vn 0.000000 0.000000 1.000000
vn 0.000000 0.000000 1.000000
vn 0.000000 0.000000 1.000000
vn 0.000000 1.000000 0.000000
vn 0.000000 1.000000 0.000000
vn 0.000000 1.000000 0.000000
vn 0.000000 1.000000 0.000000
vn 0.000000 0.000000 -1.000000
vn 0.000000 0.000000 -1.000000
vn 0.000000 0.000000 -1.000000
vn 0.000000 0.000000 -1.000000
vn 0.000000 -1.000000 -0.000000
vn 0.000000 -1.000000 -0.000000
vn 0.000000 -1.000000 -0.000000
vn 0.000000 -1.000000 -0.000000
vn 1.000000 0.000000 0.000000
vn 1.000000 0.000000 0.000000
vn 1.000000 0.000000 0.000000
vn 1.000000 0.000000 0.000000
vn -0.925084 0.000000 -0.379763
vn -0.925084 0.000000 -0.379763
vn -1.000000 0.000000 0.000000
vn -1.000000 0.000000 0.000000
vn -0.000000 -1.000000 -0.000000
vn -0.000000 -1.000000 -0.000000
vn 0.000000 -1.000000 0.000000
vn 0.000000 -1.000000 0.000000
vn -0.005217 0.000000 -0.999986
vn -0.005102 0.000000 -0.999987
vn -0.005102 0.000000 -0.999987
vn -0.005217 0.000000 -0.999986
vn 0.000000 1.000000 0.000000
vn 0.000000 1.000000 0.000000
vn 0.000000 1.000000 0.000000
vn 0.000000 1.000000 0.000000
vn 0.000000 0.000000 1.000000
vn 0.000000 0.000000 1.000000
vn 0.000000 0.000000 1.000000
vn 0.000000 0.000000 1.000000
vn 0.000000 -1.000000 0.000000
vn 0.000000 -1.000000 0.000000
vn 0.000000 0.000000 -1.000000
vn 0.000000 0.000000 -1.000000
vn 0.000000 1.000000 0.000000
vn 0.000000 1.000000 0.000000
vn 0.000000 0.000000 1.000000
vn 0.000000 0.000000 1.000000
vn 0.000000 -1.000000 0.000000
vn 0.000000 -1.000000 -0.000000
vn 0.000000 0.000000 -1.000000
vn 0.000000 0.000000 -1.000000
vn 0.000000 1.000000 0.000000
vn 0.000000 1.000000 0.000000
vn 0.000000 0.000000 1.000000
vn 0.000000 0.000000 1.000000
vn 0.000000 0.000000 1.000000
vn 0.000000 0.000000 1.000000
vn 0.000000 0.000000 1.000000
vn 0.000000 0.000000 1.000000
vn 0.000000 0.000000 1.000000
vn 0.000000 0.000000 1.000000
vn 1.000000 0.000000 0.000000
vn 1.000000 0.000000 0.000000
vn 0.000000 0.000000 -1.000000
vn 0.000000 0.000000 -1.000000
vn 0.000000 0.000000 -1.000000
vn 0.000000 0.000000 -1.000000
vn -0.005102 0.000000 -0.999987
vn -0.005217 0.000000 -0.999986
vn -0.925084 0.000000 -0.379763
vn -1.000000 0.000000 0.000000
vn 0.000000 1.000000 0.000000
vn 0.000000 1.000000 0.000000
vn 0.000000 1.000000 0.000000
vn 0.000000 1.000000 0.000000
vn 0.000000 1.000000 0.000000
vn 0.000000 1.000000 0.000000
vn 1.000000 0.000000 0.000000
vn 1.000000 0.000000 0.000000
vn 1.000000 0.000000 0.000000
vn 0.000000 -1.000000 0.000000
vn 0.000000 -1.000000 0.000000
vn 0.000000 -1.000000 0.000000
vn 0.000000 -1.000000 0.000000
vn 0.000000 -1.000000 0.000000
vn 0.000000 -1.000000 0.000000
vn -1.000000 0.000000 0.000000
vn -1.000000 0.000000 0.000000
vn -1.000000 0.000000 0.000000
vn -0.000000 -1.000000 -0.000000
vn -0.000000 -1.000000 -0.000000
vn 0.000000 -1.000000 -0.000000
vn 0.000000 -1.000000 -0.000000
vn 0.000000 -1.000000 0.000000
vn 0.000000 -1.000000 0.000000
vn 1.000000 0.000000 0.000000
vn 1.000000 0.000000 0.000000
vn 1.000000 0.000000 0.000000
vn 0.000000 1.000000 0.000000
vn 0.000000 1.000000 0.000000
vn 0.000000 1.000000 0.000000
vn 0.000000 1.000000 0.000000
vn 0.000000 1.000000 0.000000
vn 0.000000 1.000000 0.000000
vn -0.771359 0.000000 -0.636400
vn -0.771359 0.000000 -0.636400
vn -0.771359 0.000000 -0.636400
vn -0.897871 0.000000 -0.440258
vn -0.897871 0.000000 -0.440258
vn -0.897871 0.000000 -0.440258
vn -0.897871 0.000000 -0.440258
vn 0.897872 0.000000 0.440257
vn 0.897872 0.000000 0.440257
vn 0.897872 0.000000 0.440257
vn 0.897871 0.000000 0.440257
vn 0.999857 0.000000 0.016924
vn 0.999857 0.000000 0.016924
vn 0.999857 0.000000 0.016924
vn 0.999857 0.000000 0.016924
vn -0.999857 0.000000 -0.016923
vn -0.999857 0.000000 -0.016923
vn -0.999857 0.000000 -0.016923
vn -0.999857 0.000000 -0.016923
vn -1.000000 0.000000 0.000000
vn -1.000000 0.000000 0.000000
vn -1.000000 0.000000 0.000000
vn -1.000000 0.000000 0.000000
vn 1.000000 0.000000 0.000000
vn 1.000000 0.000000 0.000000
vn 1.000000 0.000000 0.000000
vn 1.000000 0.000000 0.000000
vn -0.046831 0.998903 -0.000106
vn -0.046831 0.998903 -0.000106
vn -0.046831 0.998903 -0.000106
vn -0.046831 0.998903 -0.000106
vn -0.093258 0.994591 -0.045728
vn -0.093258 0.994591 -0.045728
vn -0.093258 0.994591 -0.045728
vn -0.093258 0.994591 -0.045728
vn -0.046831 0.998903 -0.000326
vn -0.046831 0.998903 -0.000326
vn -0.046831 0.998903 -0.000326
vn -0.046831 0.998903 -0.000326
s 1
g KeyCard
usemtl initialShadingGroup
f 24/34/1 29/39/2 30/40/3 4/4/4
s 2
f 58/76/5 59/78/6 41/54/7 42/55/8
s 3
f 31/41/9 32/43/10 23/33/11 6/6/12
s 4
f 44/58/13 45/60/14 55/72/15 56/73/16
s 5
f 42/56/17 43/57/18 57/75/19 58/77/20
s 6
f 63/82/21 64/84/22 50/66/23 37/49/24
s 4
f 51/68/25 52/69/26 48/63/27 49/65/28
s 3
f 5/5/29 11/18/30 35/46/31 36/48/32
s 9
f 37/50/33 38/51/34 62/81/35 63/83/36
s 1
f 25/35/37 26/36/38 12/19/39 3/3/40
s 4
f 47/62/41 48/63/27 52/69/26 53/70/42
s 3
f 34/45/43 35/46/31 11/18/30 15/23/44
s 9
f 61/80/45 62/81/35 38/51/34 39/52/46
s 1
f 12/19/39 26/36/38 27/37/47 16/24/48
s 4
f 46/61/49 47/62/41 53/70/42 54/71/50
f 45/60/14 46/61/49 54/71/50 55/72/15
s 3
f 32/43/10 33/44/51 19/28/52 23/33/11
s 2
f 59/78/6 60/79/53 40/53/54 41/54/7
s 1
f 20/29/55 28/38/56 29/39/2 24/34/1
f 1/1/57 9/15/58 26/36/38 25/35/37
f 27/37/47 26/36/38 9/15/58 13/20/59
f 28/38/56 27/37/47 13/20/59 17/25/60
f 29/39/2 28/38/56 17/25/60 21/30/61
f 30/40/3 29/39/2 21/30/61 2/2/62
s 5
f 43/57/18 44/59/63 56/74/64 57/75/19
s 3
f 22/32/65 32/43/10 31/41/9 8/8/66
f 18/27/67 33/44/51 32/43/10 22/32/65
f 14/22/68 34/45/43 33/44/51 18/27/67
f 10/17/69 35/46/31 34/45/43 14/22/68
f 36/48/32 35/46/31 10/17/69 7/7/70
s 6
f 64/84/22 51/67/71 49/64/72 50/66/23
s 9
f 3/3/73 12/19/74 38/51/34 37/50/33
f 39/52/46 38/51/34 12/19/74 16/24/75
s 2
f 41/54/7 40/53/54 20/29/76 24/34/77
f 42/55/8 41/54/7 24/34/77 4/4/78
s 5
f 30/40/79 43/57/18 42/56/17 4/4/80
f 2/2/81 44/59/63 43/57/18 30/40/79
s 4
f 21/31/82 45/60/14 44/58/13 2/10/83
f 17/26/84 46/61/49 45/60/14 21/31/82
f 13/21/85 47/62/41 46/61/49 17/26/84
f 9/16/86 48/63/27 47/62/41 13/21/85
f 49/65/28 48/63/27 9/16/86 1/9/87
s 6
f 50/66/23 49/64/72 1/1/88 25/35/89
f 37/49/24 50/66/23 25/35/89 3/3/90
s 4
f 7/7/91 10/17/92 52/69/26 51/68/25
f 53/70/42 52/69/26 10/17/92 14/22/93
f 54/71/50 53/70/42 14/22/93 18/27/94
f 55/72/15 54/71/50 18/27/94 22/32/95
f 56/73/16 55/72/15 22/32/95 8/8/96
s 5
f 57/75/19 56/74/64 8/11/97 31/42/98
f 58/77/20 57/75/19 31/42/98 6/12/99
s 2
f 23/33/100 59/78/6 58/76/5 6/6/101
f 19/28/102 60/79/53 59/78/6 23/33/100
s 9
f 11/18/103 62/81/35 61/80/45 15/23/104
f 63/83/36 62/81/35 11/18/103 5/5/105
s 6
f 36/47/106 64/84/22 63/82/21 5/14/107
f 7/13/108 51/67/71 64/84/22 36/47/106
s off
f 40/53/109 60/79/110 65/85/111 66/86/112
f 61/80/113 39/52/114 68/87/115 67/88/116
f 34/45/117 15/23/118 61/80/119 67/88/120
f 19/28/121 33/44/122 65/85/123 60/79/124
f 28/38/125 20/29/126 40/53/127 66/86/128
f 16/24/129 27/37/130 68/87/131 39/52/132
f 28/38/133 66/86/134 68/87/135 27/37/136
f 66/86/137 65/85/138 67/88/139 68/87/140
f 34/45/141 67/88/142 65/85/143 33/44/144
