# This file uses centimeters as units for non-parametric coordinates.

mtllib TonyStGermain_PirateGame_CornerWallTile.mtl
g default
v -0.101815 0.000000 0.101815
v 0.500000 0.000000 0.101815
v -0.101815 1.761091 0.101815
v 0.500000 1.761091 0.101815
v -0.101815 1.761091 -0.101815
v 0.500000 1.761091 -0.101815
v -0.101815 0.000000 -0.101815
v 0.500000 0.000000 -0.101815
v 0.101815 0.000000 0.099366
v 0.101815 0.000000 -0.104264
v 0.101815 1.761091 -0.104264
v 0.101815 1.761091 0.099366
v -0.106516 1.761091 -0.500000
v 0.097115 1.761091 -0.500000
v 0.097115 0.000000 -0.500000
v -0.106516 0.000000 -0.500000
vt 0.375000 0.000000
vt 0.625000 0.000000
vt 0.375000 0.250000
vt 0.625000 0.250000
vt 0.375000 0.500000
vt 0.625000 0.500000
vt 0.375000 0.750000
vt 0.625000 0.750000
vt 0.375000 1.000000
vt 0.625000 1.000000
vt 0.875000 0.000000
vt 0.875000 0.250000
vt 0.125000 0.000000
vt 0.125000 0.250000
vt 0.500000 0.000000
vt 0.500000 1.000000
vt 0.500000 0.750000
vt 0.500000 0.500000
vt 0.500000 0.250000
vt 0.375000 0.500000
vt 0.500000 0.500000
vt 0.500000 0.750000
vt 0.375000 0.750000
vn -0.000000 0.000000 1.000000
vn -0.000000 0.000000 1.000000
vn -0.006150 0.000000 0.999981
vn -0.006150 0.000000 0.999981
vn 0.000000 1.000000 -0.000000
vn 0.000000 1.000000 0.000000
vn 0.000000 1.000000 0.000000
vn 0.000000 1.000000 0.000000
vn 0.006150 0.000000 -0.999981
vn 0.006150 0.000000 -0.999981
vn 0.006150 0.000000 -0.999981
vn 0.006150 0.000000 -0.999981
vn 0.000000 -1.000000 0.000000
vn 0.000000 -1.000000 0.000000
vn 0.000000 -1.000000 0.000000
vn 0.000000 -1.000000 0.000000
vn 1.000000 0.000000 0.000000
vn 1.000000 0.000000 0.000000
vn 1.000000 0.000000 0.000000
vn 1.000000 0.000000 0.000000
vn -0.999970 0.000000 0.007811
vn -1.000000 0.000000 0.000000
vn -1.000000 0.000000 0.000000
vn -0.999970 0.000000 0.007811
vn 0.000000 -1.000000 0.000000
vn 0.000000 -1.000000 0.000000
vn 0.000000 0.000000 -1.000000
vn 0.000000 0.000000 -1.000000
vn 0.000000 0.000000 -1.000000
vn 0.000000 0.000000 -1.000000
vn 0.000000 1.000000 0.000000
vn 0.000000 1.000000 -0.000000
vn 0.012024 0.000000 0.999928
vn 0.012024 0.000000 0.999928
vn 0.000000 1.000000 -0.000000
vn 0.000000 1.000000 -0.000000
vn 0.999930 0.000000 -0.011877
vn 0.999930 0.000000 -0.011877
vn 0.999930 0.000000 -0.011877
vn 0.999930 0.000000 -0.011877
vn 0.000000 -1.000000 0.000000
vn 0.000000 -1.000000 0.000000
vn -0.999930 0.000000 0.011804
vn -0.999930 0.000000 0.011804
s 1
g WallCorner
usemtl initialShadingGroup
f 12/19/1 9/15/2 2/2/3 4/4/4
s 2
f 11/18/5 12/19/6 4/4/7 6/6/8
s off
f 10/17/9 11/18/10 6/6/11 8/8/12
s 3
f 9/16/13 10/17/14 8/8/15 2/10/16
s off
f 2/2/17 8/11/18 6/12/19 4/4/20
s 4
f 7/13/21 1/1/22 3/3/23 5/14/24
s 3
f 7/7/25 10/17/14 9/16/13 1/9/26
s off
f 13/20/27 14/21/28 15/22/29 16/23/30
s 2
f 3/3/31 12/19/6 11/18/5 5/5/32
s 1
f 1/1/33 9/15/2 12/19/1 3/3/34
s 2
f 5/5/32 11/18/5 14/21/35 13/20/36
s off
f 11/18/37 10/17/38 15/22/39 14/21/40
s 3
f 10/17/14 7/7/25 16/23/41 15/22/42
s 4
f 7/7/21 5/5/24 13/20/43 16/23/44
