# This file uses centimeters as units for non-parametric coordinates.

mtllib VisionCone.mtl
g default
v 0.951057 0.000000 -0.309017
v 0.809018 0.000000 -0.587786
v 0.587786 0.000000 -0.809017
v 0.309017 0.000000 -0.951057
v 0.000000 0.000000 -1.000000
v -0.309017 0.000000 -0.951057
v -0.587785 0.000000 -0.809017
v -0.809017 0.000000 -0.587785
v -0.951057 0.000000 -0.309017
v -1.000000 0.000000 0.000000
v -0.951057 0.000000 0.309017
v -0.809017 0.000000 0.587785
v -0.587785 0.000000 0.809017
v -0.309017 0.000000 0.951057
v -0.000000 0.000000 1.000000
v 0.309017 0.000000 0.951057
v 0.587785 0.000000 0.809017
v 0.809017 0.000000 0.587785
v 0.951057 0.000000 0.309017
v 1.000000 0.000000 0.000000
v 0.113819 2.000000 -0.036983
v 0.096822 2.000000 -0.070345
v 0.070344 2.000000 -0.096822
v 0.036982 2.000000 -0.113819
v -0.000000 2.000000 -0.119677
v -0.036983 2.000000 -0.113819
v -0.070345 2.000000 -0.096822
v -0.096822 2.000000 -0.070345
v -0.113819 2.000000 -0.036983
v -0.119677 2.000000 -0.000000
v -0.113819 2.000000 0.036982
v -0.096822 2.000000 0.070344
v -0.070345 2.000000 0.096822
v -0.036983 2.000000 0.113819
v -0.000000 2.000000 0.119677
v 0.036982 2.000000 0.113819
v 0.070344 2.000000 0.096822
v 0.096822 2.000000 0.070344
v 0.113819 2.000000 0.036982
v 0.119677 2.000000 -0.000000
v 0.000000 0.000000 0.000000
v -0.000000 2.000000 -0.000000
vt 0.788476 0.271321
vt 0.096091 0.283764
vt 0.177368 0.293116
vt 0.254662 0.299045
vt 0.329565 0.302192
vt 0.403339 0.302903
vt 0.474834 0.303706
vt 0.547855 0.300825
vt 0.623291 0.295024
vt 0.702749 0.285626
vt 0.788476 0.271321
vt 0.096091 0.283764
vt 0.177368 0.293116
vt 0.254662 0.299045
vt 0.329565 0.302192
vt 0.403339 0.302903
vt 0.474834 0.303706
vt 0.547855 0.300825
vt 0.623291 0.295024
vt 0.702749 0.285626
vt 0.346675 0.977983
vt 0.357919 0.973086
vt 0.370119 0.969554
vt 0.382908 0.967086
vt 0.396045 0.965502
vt 0.409342 0.964714
vt 0.422634 0.964631
vt 0.435736 0.965419
vt 0.448411 0.967247
vt 0.460300 0.970405
vt 0.346675 0.977983
vt 0.357919 0.973086
vt 0.370119 0.969554
vt 0.382908 0.967086
vt 0.396045 0.965502
vt 0.409342 0.964714
vt 0.422634 0.964630
vt 0.435737 0.965419
vt 0.448411 0.967247
vt 0.460300 0.970405
vt 0.063537 0.414197
vt 0.059440 0.405428
vt 0.052833 0.398353
vt 0.044364 0.393667
vt 0.034861 0.391828
vt 0.025254 0.393015
vt 0.016485 0.397112
vt 0.009410 0.403719
vt 0.004724 0.412188
vt 0.002885 0.421691
vt 0.004072 0.431298
vt 0.008169 0.440068
vt 0.014776 0.447142
vt 0.023245 0.451828
vt 0.032748 0.453667
vt 0.042355 0.452480
vt 0.051125 0.448383
vt 0.058199 0.441776
vt 0.062885 0.433307
vt 0.064724 0.423804
vt 0.401453 0.005282
vt 0.033805 0.422747
vt 0.470800 0.975319
vt 0.470800 0.975319
vt 0.401453 0.005282
vt 0.008582 0.269795
vt 0.008582 0.269795
vn 0.870465 0.402863 -0.282829
vn 0.740462 0.402863 -0.537976
vn 0.740462 0.402862 -0.537975
vn 0.870465 0.402863 -0.282828
vn 0.537976 0.402862 -0.740462
vn 0.537975 0.402862 -0.740462
vn 0.282829 0.402863 -0.870465
vn 0.282829 0.402862 -0.870465
vn -0.000000 0.402863 -0.915260
vn -0.000000 0.402863 -0.915260
vn -0.282830 0.402862 -0.870465
vn -0.282829 0.402862 -0.870465
vn -0.537976 0.402862 -0.740462
vn -0.537976 0.402862 -0.740462
vn -0.740462 0.402862 -0.537976
vn -0.740462 0.402862 -0.537975
vn -0.870465 0.402862 -0.282829
vn -0.870465 0.402862 -0.282829
vn -0.915260 0.402863 0.000000
vn -0.915261 0.402863 -0.000000
vn -0.870465 0.402862 0.282830
vn -0.870465 0.402862 0.282829
vn -0.740462 0.402862 0.537976
vn -0.740462 0.402862 0.537976
vn -0.537976 0.402862 0.740462
vn -0.537975 0.402862 0.740462
vn -0.282829 0.402862 0.870465
vn -0.282829 0.402862 0.870465
vn 0.000000 0.402863 0.915261
vn 0.000000 0.402863 0.915261
vn 0.282830 0.402862 0.870465
vn 0.282829 0.402862 0.870465
vn 0.537976 0.402862 0.740462
vn 0.537975 0.402862 0.740462
vn 0.740462 0.402862 0.537976
vn 0.740462 0.402862 0.537975
vn 0.870465 0.402862 0.282830
vn 0.870465 0.402862 0.282829
vn 0.915260 0.402863 0.000001
vn 0.915261 0.402863 0.000001
vn 0.000000 -1.000000 0.000000
vn 0.000000 -1.000000 0.000000
vn 0.000000 -1.000000 0.000000
vn 0.000000 -1.000000 0.000000
vn 0.000000 -1.000000 0.000000
vn 0.000000 -1.000000 0.000000
vn 0.000000 -1.000000 0.000000
vn 0.000000 -1.000000 0.000000
vn 0.000000 -1.000000 0.000000
vn 0.000000 -1.000000 0.000000
vn 0.000000 -1.000000 0.000000
vn 0.000000 -1.000000 0.000000
vn 0.000000 -1.000000 0.000000
vn 0.000000 -1.000000 0.000000
vn 0.000000 -1.000000 0.000000
vn 0.000000 -1.000000 0.000000
vn 0.000000 -1.000000 0.000000
vn 0.000000 -1.000000 0.000000
vn 0.000000 -1.000000 0.000000
vn 0.000000 -1.000000 0.000000
vn 0.000000 -1.000000 0.000000
vn 0.000000 1.000000 0.000000
vn 0.000000 1.000000 0.000000
vn 0.000000 1.000000 0.000000
vn 0.000000 1.000000 0.000000
vn 0.000000 1.000000 0.000000
vn 0.000000 1.000000 0.000000
vn 0.000000 1.000000 0.000000
vn 0.000000 1.000000 0.000000
vn 0.000000 1.000000 0.000000
vn 0.000000 1.000000 0.000000
vn 0.000000 1.000000 0.000000
vn 0.000000 1.000000 0.000000
vn 0.000000 1.000000 0.000000
vn 0.000000 1.000000 0.000000
vn 0.000000 1.000000 0.000000
vn 0.000000 1.000000 0.000000
vn 0.000000 1.000000 0.000000
vn 0.000000 1.000000 0.000000
vn 0.000000 1.000000 0.000000
vn 0.000000 1.000000 0.000000
vn 0.000000 1.000000 0.000000
s 1
g VisionCone
usemtl initialShadingGroup
f 1/67/1 2/2/2 22/22/3 21/21/4
f 2/2/2 3/3/5 23/23/6 22/22/3
f 3/3/5 4/4/7 24/24/8 23/23/6
f 4/4/7 5/5/9 25/25/10 24/24/8
f 5/5/9 6/6/11 26/26/12 25/25/10
f 6/6/11 7/7/13 27/27/14 26/26/12
f 7/7/13 8/8/15 28/28/16 27/27/14
f 8/8/15 9/9/17 29/29/18 28/28/16
f 9/9/17 10/10/19 30/30/20 29/29/18
f 10/10/19 11/11/21 31/63/22 30/30/20
f 11/66/21 12/12/23 32/32/24 31/31/22
f 12/12/23 13/13/25 33/33/26 32/32/24
f 13/13/25 14/14/27 34/34/28 33/33/26
f 14/14/27 15/15/29 35/35/30 34/34/28
f 15/15/29 16/16/31 36/36/32 35/35/30
f 16/16/31 17/17/33 37/37/34 36/36/32
f 17/17/33 18/18/35 38/38/36 37/37/34
f 18/18/35 19/19/37 39/39/38 38/38/36
f 19/19/37 20/20/39 40/40/40 39/39/38
f 20/20/39 1/1/1 21/64/4 40/40/40
s 2
f 2/2/41 1/67/42 41/65/43 3/3/44
f 4/4/45 3/3/44 41/65/43 5/5/46
f 6/6/47 5/5/46 41/65/43 7/7/48
f 8/8/49 7/7/48 41/65/43 9/9/50
f 10/10/51 9/9/50 41/65/43 11/11/52
f 12/12/53 11/66/52 41/61/43 13/13/54
f 14/14/55 13/13/54 41/61/43 15/15/56
f 16/16/57 15/15/56 41/61/43 17/17/58
f 18/18/59 17/17/58 41/61/43 19/19/60
f 20/20/61 19/19/60 41/61/43 1/1/42
s 3
f 42/62/62 21/59/63 22/58/64 23/57/65
f 42/62/62 23/57/65 24/56/66 25/55/67
f 42/62/62 25/55/67 26/54/68 27/53/69
f 42/62/62 27/53/69 28/52/70 29/51/71
f 42/62/62 29/51/71 30/50/72 31/49/73
f 42/62/62 31/49/73 32/48/74 33/47/75
f 42/62/62 33/47/75 34/46/76 35/45/77
f 42/62/62 35/45/77 36/44/78 37/43/79
f 42/62/62 37/43/79 38/42/80 39/41/81
f 42/62/62 39/41/81 40/60/82 21/59/63
